name C:\Users\u0101727\Documents\MyRepositories\upper-imu-dc\Results\main_tracking\Case_42\FLX01_linearAccelerations_groundFrame.mot
datacolumns 4
datarows 47
range 3.51000000 3.97000000
endheader 
time	radius_imu_x	radius_imu_y	radius_imu_z	
          3.51000000	          0.14353867	          9.77737365	          0.09272926	
          3.52000000	          0.13774571	          9.77624660	          0.09560810	
          3.53000000	          0.13473625	          9.77481995	          0.09711670	
          3.54000000	          0.13466143	          9.77323099	          0.09730814	
          3.55000000	          0.13754225	          9.77162190	          0.09633617	
          3.56000000	          0.14327783	          9.77013586	          0.09444065	
          3.57000000	          0.15167112	          9.76890679	          0.09191787	
          3.58000000	          0.16246683	          9.76803934	          0.08908107	
          3.59000000	          0.17539737	          9.76758201	          0.08621823	
          3.60000000	          0.19023187	          9.76750607	          0.08355544	
          3.61000000	          0.20681769	          9.76770254	          0.08123368	
          3.62000000	          0.22510108	          9.76799678	          0.07930198	
          3.63000000	          0.24512138	          9.76816977	          0.07772361	
          3.64000000	          0.26698510	          9.76797799	          0.07638946	
          3.65000000	          0.29082890	          9.76717323	          0.07513596	
          3.66000000	          0.31678169	          9.76552324	          0.07376556	
          3.67000000	          0.34493529	          9.76282782	          0.07206558	
          3.68000000	          0.37532855	          9.75892478	          0.06982192	
          3.69000000	          0.40793871	          9.75368921	          0.06682962	
          3.70000000	          0.44267493	          9.74703509	          0.06290423	
          3.71000000	          0.47938031	          9.73892484	          0.05789474	
          3.72000000	          0.51784570	          9.72938253	          0.05169603	
          3.73000000	          0.55782550	          9.71849746	          0.04425553	
          3.74000000	          0.59903714	          9.70640844	          0.03557205	
          3.75000000	          0.64114244	          9.69327242	          0.02568996	
          3.76000000	          0.68372948	          9.67922796	          0.01469265	
          3.77000000	          0.72631889	          9.66436025	          0.00269394	
          3.78000000	          0.76840581	          9.64867272	         -0.01017342	
          3.79000000	          0.80952133	          9.63207856	         -0.02376768	
          3.80000000	          0.84927894	          9.61442714	         -0.03793901	
          3.81000000	          0.88738686	          9.59556287	         -0.05251926	
          3.82000000	          0.92363073	          9.57539168	         -0.06730598	
          3.83000000	          0.95784000	          9.55392563	         -0.08204989	
          3.84000000	          0.98985705	          9.53129153	         -0.09645659	
          3.85000000	          1.01952720	          9.50770908	         -0.11020746	
          3.86000000	          1.04670915	          9.48345480	         -0.12299250	
          3.87000000	          1.07128871	          9.45882543	         -0.13454023	
          3.88000000	          1.09318604	          9.43410586	         -0.14463499	
          3.89000000	          1.11235451	          9.40954174	         -0.15312115	
          3.90000000	          1.12877643	          9.38531934	         -0.15989916	
          3.91000000	          1.14244405	          9.36156204	         -0.16491107	
          3.92000000	          1.15333151	          9.33833752	         -0.16811989	
          3.93000000	          1.16137285	          9.31565724	         -0.16949401	
          3.94000000	          1.16646025	          9.29346185	         -0.16900701	
          3.95000000	          1.16846335	          9.27161457	         -0.16664851	
          3.96000000	          1.16726154	          9.24992723	         -0.16243310	
          3.97000000	          1.16278217	          9.22821402	         -0.15640251	
